<svg width="32" height="32" viewBox="0 0 32 32" fill="none" xmlns="http://www.w3.org/2000/svg">
<g clip-path="url(#clip0_381_18559)">
<mask id="mask0_381_18559" style="mask-type:luminance" maskUnits="userSpaceOnUse" x="0" y="0" width="32" height="32">
<path d="M32 0H0V32H32V0Z" fill="white"/>
</mask>
<g mask="url(#mask0_381_18559)">
<path d="M21.365 4.73425C22.1672 4.68299 23.1888 4.83654 24.6882 5.34753L24.6873 5.34851C24.7091 5.35447 24.7278 5.35936 24.74 5.36414C24.7438 5.36545 24.7489 5.36671 24.7527 5.36804C25.8317 5.75068 26.6828 6.49818 27.1482 7.48035L27.2019 7.58484L27.2029 7.58582C28.4715 10.0787 30.3603 13.7936 31.5349 17.828L31.7605 18.6395C32.2265 20.4526 31.9387 22.3979 31.364 23.9569C31.0761 24.7378 30.7126 25.4319 30.3269 25.9725C29.9945 26.4383 29.6289 26.8131 29.2625 27.0194L29.1052 27.0975C28.5452 27.3372 28.023 27.4097 27.533 27.3466C27.0445 27.2836 26.6042 27.0884 26.2029 26.8173C25.411 26.2821 24.7351 25.4243 24.1033 24.6288C22.855 23.0531 21.6623 21.5792 19.7468 21.579H12.1638C10.4936 21.5791 9.38249 22.7028 8.29858 24.035L7.83374 24.6161C7.32186 25.2642 6.78283 25.9486 6.1814 26.4677C5.64406 26.9313 5.03519 27.2802 4.32593 27.3534V27.3719H4.05054C3.6577 27.3719 3.2471 27.2876 2.81128 27.1024C2.40351 26.9385 1.99306 26.5295 1.62671 26.0048C1.25338 25.47 0.900016 24.7784 0.619873 23.9989C0.0609234 22.4432 -0.220697 20.4972 0.241943 18.6942C1.4251 14.1527 3.58314 9.98112 4.86401 7.50769C5.32202 6.5441 6.17846 5.79616 7.2605 5.41199L7.2644 5.41003C8.799 4.88844 9.83703 4.72785 10.6462 4.77234C11.2578 4.80604 11.7268 4.95705 12.1589 5.1366L12.5828 5.32214C13.3185 5.65321 14.1383 6.02429 15.9998 6.02429C17.8598 6.02424 18.6911 5.64115 19.4333 5.30066C19.9939 5.04487 20.5578 4.78592 21.365 4.73425ZM21.5876 6.54578C21.0468 6.56602 20.6807 6.731 20.1863 6.95691L20.1853 6.95593C19.3251 7.35045 18.2429 7.84358 15.9998 7.84363C14.0366 7.84362 12.9775 7.47617 12.1736 7.12878L11.8435 6.9823C11.3527 6.76294 10.9893 6.60299 10.4451 6.58582C9.89075 6.56844 9.12701 6.70019 7.86108 7.12976L7.63159 7.22351C7.11192 7.46222 6.71507 7.84504 6.4939 8.31628L6.48901 8.32605C5.22193 10.778 3.13041 14.822 2.00269 19.1542C1.63116 20.6022 1.87525 22.1252 2.29858 23.33C2.5097 23.9307 2.76294 24.4443 2.9978 24.8202C3.1153 25.0082 3.22555 25.1579 3.32104 25.2655C3.42267 25.38 3.48819 25.4238 3.5105 25.4335C3.76352 25.5397 3.98066 25.5662 4.18042 25.536C4.38303 25.5052 4.5902 25.4134 4.81616 25.2499C5.28038 24.9137 5.77099 24.3198 6.41675 23.5018C7.5786 22.0287 9.0871 20.099 11.5408 19.8134L11.5007 19.7723H19.7468C22.582 19.7725 24.2554 21.9094 25.5251 23.5067C26.1711 24.3201 26.661 24.9121 27.1208 25.2479C27.3452 25.4117 27.5487 25.5038 27.7458 25.535C27.9401 25.5657 28.1498 25.5406 28.3933 25.4364L28.4646 25.3885C28.4985 25.3609 28.5425 25.3194 28.5955 25.2616C28.6956 25.1522 28.8122 25.0004 28.9353 24.8104C29.1814 24.4304 29.4468 23.912 29.6697 23.3065C30.1169 22.0913 30.3804 20.5578 30.0066 19.1044C28.9133 14.9571 26.919 11.0294 25.5886 8.41296L25.5876 8.41101L25.5281 8.29089L25.5251 8.28503C25.2694 7.7432 24.8007 7.325 24.1853 7.09753C24.1829 7.09681 24.1804 7.09617 24.1785 7.09558C24.1728 7.09379 24.1671 7.09179 24.1638 7.0907L24.1628 7.08972L24.1521 7.08679L24.1404 7.08289C22.8926 6.6545 22.138 6.52532 21.5876 6.54578ZM16.0085 10.1786C16.7698 10.1786 17.3894 10.7983 17.3894 11.5594C17.3891 12.3203 16.7696 12.9393 16.0085 12.9393C15.2479 12.9389 14.6289 12.3201 14.6287 11.5594C14.6287 10.7986 15.2477 10.179 16.0085 10.1786Z" fill="#002948"/>
</g>
</g>
<defs>
<clipPath id="clip0_381_18559">
<rect width="32" height="32" fill="white"/>
</clipPath>
</defs>
</svg>
