<svg width="32" height="32" viewBox="0 0 32 32" fill="none" xmlns="http://www.w3.org/2000/svg">
<g clip-path="url(#clip0_381_18595)">
<mask id="mask0_381_18595" style="mask-type:luminance" maskUnits="userSpaceOnUse" x="0" y="0" width="32" height="32">
<path d="M32 0H0V32H32V0Z" fill="white"/>
</mask>
<g mask="url(#mask0_381_18595)">
<path d="M30.4004 25.0889C30.9234 25.0891 31.3494 25.5151 31.3496 26.0381C31.3495 26.5612 30.9235 26.9881 30.4004 26.9883H1.59961C1.07653 26.9881 0.650457 26.5612 0.650391 26.0381C0.650604 25.5151 1.07662 25.0891 1.59961 25.0889H30.4004ZM25.79 5.5459C27.0227 5.54614 28 6.58664 28 7.83398V20.7129C27.9998 21.9601 27.0225 22.9998 25.79 23H5.83691C4.60422 23 3.62717 21.9602 3.62695 20.7129V7.83398C3.62695 6.5865 4.60408 5.5459 5.83691 5.5459H25.79ZM5.83691 7.44824C5.70235 7.44824 5.52637 7.5851 5.52637 7.83691V20.7158C5.52653 20.9654 5.70327 21.1035 5.83691 21.1035H25.79C25.9245 21.1032 26.0995 20.9671 26.0996 20.7158V7.83691C26.0996 7.5874 25.9237 7.44854 25.79 7.44824H5.83691Z" fill="#002948"/>
</g>
</g>
<defs>
<clipPath id="clip0_381_18595">
<rect width="32" height="32" fill="white"/>
</clipPath>
</defs>
</svg>
